{"title":"To Teratospito greek audio.avi","uid":7951382,"size":734009344,"categoryP":"video","categoryS":"movies","magnet":"?xt=urn:btih:310ec23f7c80e89954f2c7c73c4167a984d69187&amp;dn=To+Teratospito+greek+audio.avi&amp;tr=udp%3A%2F%2Ftracker.openbittorrent.com%3A80&amp;tr=udp%3A%2F%2Fopen.demonii.com%3A1337&amp;tr=udp%3A%2F%2Ftracker.coppersurfer.tk%3A6969&amp;tr=udp%3A%2F%2Fexodus.desync.com%3A6969","seeders":5,"leechers":0,"uploader":null,"files":1,"time":1356281951,"description":"General\n\nFormat                                   : AVI\nFormat/Info                           : Audio Video Interleave\nFile size                                 : 700 MiB\nDuration                                : 1h 36mn\nOverall bit rate mode          : Variable\nOverall bit rate                      : 1 016 Kbps\nWriting application               : VirtualDubMod 1.5.4.1 (build 2178/release)\nWriting library                        : VirtualDubMod build 2178/release\n\n\nVideo\n\nID                                            : 0\nFormat                                   : MPEG-4 Visual\nFormat profile                       : Advanced Simple@L5\nFormat settings, BVOP       : 1\nFormat settings, QPel         : No\nFormat settings, GMC         : No warppoints\nFormat settings, Matrix        : Custom\nCodec ID                                : XVID\nCodec ID/Hint                        : XviD\nDuration                                 : 1h 36mn\nBit rate                                    : 886 Kbps\nWidth                                       : 720 pixels\nHeight                                     : 304 pixels\nDisplay aspect ratio             : 2.35:1\nFrame rate                             : 25.000 fps\nColor space                           : YUV\nChroma subsampling         : 4:2:0\nBit depth                                  : 8 bits\nScan type                                : Progressive\nCompression mode             : Lossy\nBits/(Pixel*Frame)                 : 0.162\nStream size                            : 611 MiB (87%)\nWriting library                          : XviD 1.2.0.dev47 (UTC 2006-11-01)\n\n\nAudio\n\nID                                             : 1\nFormat                                    : MPEG Audio\nFormat version                      : Version 1\nFormat profile                        : Layer 3\nMode                                       : Joint stereo\nMode extension                     : MS Stereo\nCodec ID                                 : 55\nCodec ID/Hint                         : MP3\nDuration                                   : 1h 35mn\nBit rate mode                          : Variable\nBit rate                                      : 117 Kbps\nNominal bit rate                     : 128 Kbps\nChannel(s)                              : 2 channels\nSampling rate                         : 48.0 KHz\nCompression mode              : Lossy\nStream size                             : 80.4 MiB (11%)\nAlignment                                 : Aligned on interleaves\nInterleave, duration                 : 24 ms (0.60 video frame)\nInterleave, preload duration : 157 ms\nWriting library                          : LAME3.97 \nEncoding settings                   : -m j -V 4 -q 2 -lowpass 17 --abr 128\nLanguage                                 : Greek\n\n\n","torrent":{"xt":"urn:btih:310ec23f7c80e89954f2c7c73c4167a984d69187","amp;dn":"To+Teratospito+greek+audio.avi","amp;tr":["udp%3A%2F%2Ftracker.openbittorrent.com%3A80","udp%3A%2F%2Fopen.demonii.com%3A1337","udp%3A%2F%2Ftracker.coppersurfer.tk%3A6969","udp%3A%2F%2Fexodus.desync.com%3A6969"],"infoHash":"310ec23f7c80e89954f2c7c73c4167a984d69187","infoHashBuffer":{"type":"Buffer","data":[49,14,194,63,124,128,232,153,84,242,199,199,60,65,103,169,132,214,145,135]},"announce":[],"urlList":[]}}